<?xml version="1.0" encoding="utf-8"?>
<!-- Generator: Adobe Illustrator 16.0.4, SVG Export Plug-In . SVG Version: 6.00 Build 0)  -->
<!DOCTYPE svg PUBLIC "-//W3C//DTD SVG 1.1//EN" "http://www.w3.org/Graphics/SVG/1.1/DTD/svg11.dtd">
<svg version="1.1" id="Ebene_1" xmlns="http://www.w3.org/2000/svg" xmlns:xlink="http://www.w3.org/1999/xlink" x="0px" y="0px"
	 width="318px" height="122px" viewBox="0 0 318 122" enable-background="new 0 0 318 122" xml:space="preserve">
<g>
	<g>
		<path d="M39.191,79.98h-5.487v-8.064h-7.157v8.064h-5.485V59.408h5.485v7.735h7.157v-7.735h5.487V79.98z"/>
		<path d="M53.095,67.664h8.779v3.814h-8.779v4.004h9.544v4.498H47.611V59.408h14.84v4.5h-9.356V67.664z"/>
	</g>
	<g>
		<path d="M88.447,72.189v0.605c0,2.248-0.028,4.279-1.895,5.842c-1.864,1.533-4.138,1.508-6.527,1.508
			c-5.595,0-9.68-0.273-9.68-7.787v-5.324c0-6.803,3.646-7.79,9.68-7.79c5.651,0,8.284,0.576,8.393,6.749v0.795h-5.651v-0.795
			c-0.19-1.838-1.479-1.975-3.345-1.975c-3.127,0-3.427,0.961-3.427,3.896v3.207c0,3.068,0.134,4.252,3.427,4.252
			c2.277,0,3.375-0.166,3.375-2.578v-0.605H88.447z"/>
		<path d="M113.188,79.98h-5.485v-8.064h-7.16v8.064H95.06V59.408h5.483v7.735h7.16v-7.735h5.485V79.98z"/>
	</g>
	<g>
		<path d="M130.62,79.98h-5.486V64.182h-5.266v-4.774h16.292v4.774h-5.54V79.98z"/>
	</g>
	<g>
		<path fill="#845A24" d="M53.002,91.436h8.776v3.812h-8.776v4.004h9.543v4.498H47.517V83.18h14.839v4.498h-9.354V91.436z"/>
		<path fill="#845A24" d="M88.356,95.963v0.602c0,2.252-0.027,4.279-1.892,5.844c-1.867,1.533-4.143,1.506-6.527,1.506
			c-5.597,0-9.685-0.271-9.685-7.787v-5.322c0-6.801,3.648-7.789,9.685-7.789c5.649,0,8.281,0.574,8.392,6.746v0.797h-5.65v-0.797
			c-0.191-1.836-1.483-1.973-3.347-1.973c-3.126,0-3.43,0.959-3.43,3.895v3.209c0,3.072,0.139,4.25,3.43,4.25
			c2.276,0,3.375-0.164,3.375-2.578v-0.602H88.356z"/>
	</g>
	<g>
		<path fill="#845A24" d="M113.188,103.75h-5.484v-8.064h-7.16v8.064H95.06V83.18h5.485v7.736h7.16V83.18h5.484V103.75z"/>
		<path fill="#845A24" d="M130.632,103.75h-5.482V87.953h-5.27V83.18h16.294v4.773h-5.542V103.75z"/>
	</g>
	<g>
		<path fill="#845A24" d="M167.899,103.75h-5.484v-8.064h-7.162v8.064h-5.482V83.18h5.482v7.736h7.162V83.18h5.484V103.75z"/>
		<path fill="#845A24" d="M175.468,96.373v-5.814c0-6.336,3.951-7.543,9.518-7.543c5.568,0,9.52,1.207,9.52,7.543v5.814
			c0,6.336-3.951,7.541-9.52,7.541C179.419,103.914,175.468,102.709,175.468,96.373z M188.854,95.77v-4.637
			c0-3.043-1.018-3.344-3.869-3.344c-2.851,0-3.783,0.301-3.865,3.344v4.637c0.082,3.072,1.015,3.373,3.865,3.373
			C187.837,99.143,188.854,98.842,188.854,95.77z"/>
		<path fill="#845A24" d="M207.425,98.979h8.584v4.771h-14.07V83.18h5.486V98.979z"/>
		<path fill="#845A24" d="M238.772,87.789l-9.848,11.027v0.162h9.848v4.771h-16.813v-4.635l9.71-10.998v-0.164h-9.078V83.18h16.182
			V87.789z"/>
	</g>
	<path fill-rule="evenodd" clip-rule="evenodd" fill="#845A24" d="M188.947,18.128h107.991v45.821H188.947V18.128z"/>
	<polygon fill-rule="evenodd" clip-rule="evenodd" fill="#FFFFFF" points="251.245,18.085 251.245,63.949 238.69,63.949 
		238.69,46.215 222.165,46.215 222.165,63.949 209.662,63.949 209.662,18.085 222.165,18.085 222.165,35.075 238.69,35.075 
		238.69,18.085 251.245,18.085 	"/>
</g>
</svg>
